<svg xmlns="http://www.w3.org/2000/svg" xmlns:svg="http://www.w3.org/2000/svg" id="svg7221" width="16.003" height="16" version="1.1" viewBox="0 0 16.003 16"><metadata id="metadata7226"/><g id="layer1" transform="translate(-366.99825,-524.3622)"><g id="g7884"><g id="g7890"><g id="g7894"><path id="path7888" fill="#bebebe" fill-opacity="1" fill-rule="nonzero" stroke="none" stroke-dasharray="4 4" stroke-dashoffset="0" stroke-linecap="butt" stroke-linejoin="miter" stroke-miterlimit="4" stroke-opacity="1" stroke-width="1" d="m 374.15994,526.74583 -4.68029,0.26893 -0.23767,4.71155 6.26952,6.26954 c 0.39176,0.3917 1.02232,0.39173 1.41406,-10e-6 l 3.53516,-3.53515 c 0.39174,-0.39176 0.39177,-1.02233 2e-5,-1.41407 z m -1.90055,1.83578 c 0.31165,0.004 0.60946,0.12944 0.83008,0.34963 0.4679,0.46747 0.46792,1.22586 0,1.69334 -0.46748,0.46791 -1.22587,0.46791 -1.69336,10e-6 -0.46789,-0.46749 -0.46789,-1.22588 0,-1.69337 0.22879,-0.22827 0.5401,-0.35444 0.86328,-0.34961 z" clip-rule="nonzero" color="#000" color-interpolation="sRGB" color-interpolation-filters="linearRGB" color-rendering="auto" display="inline" enable-background="accumulate" image-rendering="auto" opacity="1" overflow="visible" shape-rendering="auto" text-rendering="auto" visibility="visible" style="isolation:auto;mix-blend-mode:normal;solid-color:#000;solid-opacity:1;marker:none"/></g></g></g></g></svg>